<?xml version="1.0" standalone="no"?><!DOCTYPE svg PUBLIC "-//W3C//DTD SVG 1.1//EN" "http://www.w3.org/Graphics/SVG/1.1/DTD/svg11.dtd"><svg t="1562834544353" class="icon" viewBox="0 0 1024 1024" version="1.1" xmlns="http://www.w3.org/2000/svg" p-id="4220" xmlns:xlink="http://www.w3.org/1999/xlink" width="28" height="28"><defs><style type="text/css"></style></defs><path d="M659.936 411.545c-6.605-54.772-67.41-44.302-97.913-36.12-22.063 5.909-37.088 9.937-43.84 11.742l15.895 131.427 80.864-21.662c20.938-8.857 50.977-35.94 44.994-85.387z m-39.092 154.811c-18.348 4.906-29.972 8.027-30.58 8.183L542.4 587.371l17.3 143.193c6.67-1.789 23.83-6.384 67.235-18.012 65.167-17.465 93.165-54.987 86.684-108.696-6.49-53.643-74.464-42.414-92.775-37.5z m229.72 4.711c-7.314-60.532-41.436-86.785-69.335-98.195-0.515-0.25-1.03-0.466-1.571-0.668l-8.116-3.198c16.547-25.233 33.03-66.498 19.271-121.097-8.363-33.163-30.018-57.716-62.73-71.222a18.774 18.774 0 0 0-1.892-0.875l-102.32-40.4-7.137-58.99a18.75 18.75 0 0 0-11.738-15.195L469.13 107.579a18.69 18.69 0 0 0-11.751-0.672l-61.062 16.369c-8.1 2.17-13.66 9.39-13.903 17.553l-15.123-5.97c-3.736-1.473-7.857-1.724-11.738-0.66l-61.059 16.362c-9.046 2.412-14.9 11.095-13.773 20.376l11.03 91.263-106.49 28.532c-9.01 2.425-14.88 11.106-13.758 20.384l8.37 69.336a18.748 18.748 0 0 0 11.739 15.2l72.416 28.596 31.187 257.88c0.243 1.992 0.304 3.822 0.336 5.55l-0.032 1.296a32.976 32.976 0 0 1-0.255 3.266l-0.081 0.764a14.064 14.064 0 0 1-0.53 2.243c-0.065 0.146-0.351 0.821-0.417 0.972a8.29 8.29 0 0 1-0.656 1.44c-0.112 0.195-0.242 0.382-0.4 0.625-0.352 0.308-0.687 0.62-0.85 0.79l-1.122 0.712c-0.562 0.283-1.14 0.535-1.688 0.683l-46.884 12.565c-8.791 2.376-14.624 10.734-13.79 19.821l6.477 71.02a18.738 18.738 0 0 0 11.786 15.745l117.648 46.447 1.971 16.307a18.765 18.765 0 0 0 11.743 15.204l135.863 53.65a18.87 18.87 0 0 0 6.898 1.3c1.62 0 3.254-0.21 4.845-0.643l61.058-16.357a18.79 18.79 0 0 0 13.92-17.554l15.106 5.961a18.603 18.603 0 0 0 11.739 0.672l61.075-16.373a18.753 18.753 0 0 0 13.774-20.38l-11.284-93.44c117.826-32.439 172.857-109.612 159.1-223.347zM684.133 776.955c-4.39 1.17-8.803 2.356-13.259 3.557l13.244 109.599-61.059 16.377L609.81 796.88a34235.221 34235.221 0 0 0-40.765 10.921l13.248 109.603-61.062 16.357-13.26-109.603c-66.932 17.93-115.536 30.951-118.103 31.644l-6.476-71.015c1.732-0.466 34.604-9.27 46.856-12.547 12.171-3.263 22.432-14.167 19.465-38.724-2.983-24.65-33.801-279.616-35.984-297.575-2.145-17.878-13.147-21.832-33.547-16.373-20.299 5.444-44.545 11.933-45.812 12.276l-8.386-69.348c2.935-0.773 58.72-15.728 122.223-32.738L435.22 222.326l61.062-16.361 12.986 107.425c14.595-3.902 28.37-7.597 40.764-10.921l-12.99-107.429 61.063-16.36 13.135 108.65c62.97-10.814 143.788-4.533 161.36 65.163 20.205 80.063-33.944 127.51-36.797 130.007 4.25-0.049 85.037-0.915 96.132 90.812 11.093 91.73-22.583 170.088-147.802 203.643z" p-id="4221" fill="#ed8f3d"></path></svg>